<?xml version="1.0" standalone="no"?>
<!DOCTYPE svg PUBLIC "-//W3C//DTD SVG 20010904//EN"
 "http://www.w3.org/TR/2001/REC-SVG-20010904/DTD/svg10.dtd">
<svg version="1.0" xmlns="http://www.w3.org/2000/svg"
 width="512.000000pt" height="512.000000pt" viewBox="0 0 512.000000 512.000000"
 preserveAspectRatio="xMidYMid meet">

<g transform="translate(0.000000,512.000000) scale(0.100000,-0.100000)"
fill="#000000" stroke="none">
<path d="M2045 4369 c-128 -17 -235 -80 -387 -227 -103 -100 -158 -174 -158
-212 0 -17 -41 -64 -149 -169 -183 -179 -196 -201 -188 -318 5 -64 2 -97 -14
-152 -30 -110 -26 -133 39 -203 23 -25 24 -34 26 -140 1 -121 2 -122 55 -107
9 3 20 -10 29 -35 12 -30 13 -47 5 -79 -15 -54 -9 -64 47 -81 69 -21 87 -32
94 -61 9 -36 48 -34 75 4 12 16 35 32 51 36 16 4 32 11 36 16 7 12 -19 102
-63 214 -30 76 -36 103 -37 175 -1 61 4 98 17 131 18 45 18 47 -2 104 -28 80
-27 109 12 190 25 52 37 96 46 170 16 123 44 265 66 325 35 99 108 183 210
245 160 95 426 119 601 54 127 -48 242 -154 282 -262 21 -56 70 -341 79 -457
6 -75 -19 -233 -47 -300 -27 -64 -37 -110 -50 -230 -6 -58 -18 -132 -27 -165
-24 -89 -88 -242 -118 -281 -14 -18 -87 -75 -163 -126 -75 -51 -154 -110 -174
-130 -45 -45 -84 -66 -145 -77 -47 -9 -85 0 -185 43 -36 15 -39 15 -58 -4 -19
-19 -20 -19 -73 73 -85 145 -117 203 -117 214 0 16 73 33 145 33 94 0 137 23
181 96 9 16 12 14 32 -18 31 -50 67 -62 162 -55 47 4 91 2 110 -4 63 -23 159
13 189 70 9 15 3 16 -53 13 -110 -7 -312 46 -410 108 l-30 18 -162 -84 c-90
-46 -174 -84 -188 -84 -34 0 -40 -25 -26 -117 40 -273 96 -384 235 -468 41
-25 56 -44 90 -108 l41 -77 25 26 c29 31 94 65 199 104 293 108 542 320 619
526 44 116 45 222 6 364 -8 30 -15 71 -15 92 0 39 14 58 24 33 10 -27 40 -15
126 50 47 36 88 65 91 65 9 0 19 -38 19 -71 0 -30 -34 -83 -104 -164 l-48 -56
-2 -119 c0 -65 2 -113 6 -107 4 6 15 51 25 99 9 48 20 88 23 88 13 0 49 -78
56 -120 8 -49 38 -86 80 -96 23 -6 31 -2 54 26 l27 33 6 -32 c8 -40 51 -103
109 -158 95 -92 281 -93 338 -1 18 28 20 45 17 108 -2 41 -10 108 -18 149
l-13 73 51 47 c28 25 56 56 62 68 19 37 24 135 11 198 -11 51 -20 67 -61 107
-51 49 -53 55 -49 126 4 84 -95 197 -225 257 -115 52 -255 214 -332 383 -41
91 -121 192 -212 268 -144 121 -194 134 -526 139 -126 2 -261 -1 -300 -6z"/>
<path d="M3307 2277 c-34 -169 -139 -329 -357 -547 -80 -80 -175 -171 -212
-204 l-68 -58 -57 22 c-121 48 -321 149 -403 204 -46 31 -94 56 -107 56 -27 0
-88 -36 -122 -74 -31 -33 -44 -33 -65 -1 -9 14 -32 33 -50 42 -31 14 -48 14
-229 -6 -107 -12 -219 -28 -249 -36 -29 -7 -55 -12 -57 -10 -8 8 52 216 84
289 19 44 33 81 31 83 -8 8 -222 -109 -295 -162 -316 -227 -558 -571 -722
-1027 l-39 -108 2170 0 2170 0 -6 33 c-63 352 -220 695 -410 897 -84 88 -153
138 -315 228 -248 137 -464 281 -613 408 l-62 52 -17 -81z"/>
</g>
</svg>
